<svg xmlns="http://www.w3.org/2000/svg" width="505" height="142.6" viewBox="0 0 505 142.6">
  <g fill="#403D56">
    <path d="M100 92.6c-13.2 0-24.5-11.3-24.5-24.5S86.8 43.6 100 43.6s24.5 11.3 24.5 24.5c0 13.1-11.4 24.5-24.5 24.5zm0-38.6c-7.4 0-14 6.7-14 14 0 7.4 6.7 14.1 14 14.1 7.4 0 14-6.7 14-14.1 0-7.3-6.7-14-14-14zM130.6 109.4V61h10.5v3.8c2.7-3.4 6.6-4.5 10.6-4.5 8.8 0 15.3 7.6 15.3 16.2s-6.6 16.1-15.3 16.1c-4 0-8.5-1.3-10.6-4.4v21.2h-10.5zm17.9-25.2c4.2 0 7.4-3.6 7.4-7.7s-3.2-7.7-7.4-7.7-7.4 3.6-7.4 7.7 3.2 7.7 7.4 7.7zM206 77.7h-23.9c0 3.6 2.5 7.4 6.7 7.4 3.7 0 6-2.5 6.1-4.7h10.7c-1.8 8.1-8.4 12.2-16.6 12.2-10.6 0-18-6.3-18-16.1 0-9.7 7.6-16.2 18-16.2 9.4 0 17.2 5.6 17.2 15.5-.1.6-.2 1.3-.2 1.9zm-10-4.9s-.5-5.7-6.9-5.7c-6.6 0-6.9 5.7-6.9 5.7H196zM243.3 91.9h-10.5V74.4c0-3.6-1.4-5.6-4.7-5.6s-5.9 3.5-5.9 7.7v15.4h-10.5V61h10.5v3.8c2.1-2.7 5.4-4.5 9.5-4.5 8.3 0 11.6 5.7 11.6 14.1v17.5z"/>
  </g>
  <g fill="#A6BF25">
    <path d="M299.3 91.9l-5.6-32.8-9.3 32.8h-10.3l-9.3-32.8-5.6 32.8h-11.6l9.2-47.6h12.5l9.9 33.4 9.9-33.4h12.5l9.2 47.6h-11.5zM337.3 92.6c-13.2 0-24.5-11.3-24.5-24.5s11.3-24.5 24.5-24.5 24.5 11.3 24.5 24.5c0 13.1-11.3 24.5-24.5 24.5zm0-38.6c-7.4 0-14 6.7-14 14 0 7.4 6.7 14.1 14 14.1 7.4 0 14-6.7 14-14.1 0-7.3-6.6-14-14-14zM368.2 44.3h10.5v38.1h17.1v9.5h-27.6V44.3zM427.9 91.9h-27.6V44.3h27.6v9.5h-17.1v9.5h16.4v9.5h-16.4v9.6h17.1v9.5z"/>
  </g>
</svg>
